#!OML:ASF H:\Male1\Project 1\Capture day 1\Session 1\Male1.ASF
:FULLY-SPECIFIED
:DEGREES
673
root 15.4469 15.84 1.05106 19.3639 -105.15 -28.9436
lowerback 15.5889 2.70151 1.54417
upperback 6.8395 3.05275 -5.73532
thorax -1.03099 1.41794 -7.45244
lowerneck -19.0568 11.7211 -2.16962
upperneck 7.41724 -50.3077 -4.7069
head 214.564 -135.672 -2.67228
rclavicle 3.47873e-015 -7.15625e-015
rhumerus -45.9996 23.0504 -85.3222
rradius 58.803
rwrist -25.9586
rhand -9.94661 -7.52374
rfingers 7.12502
rthumb 16.0351 -36.8802
lclavicle 3.47873e-015 -7.15625e-015
lhumerus -59.0435 20.7184 50.4682
lradius 33.7541
lwrist 0.148182
lhand -4.29488 14.9926
lfingers 7.12502
lthumb 21.4708 43.8227
rfemur 16.5224 18.4554 24.3638
rtibia -3.73715e-014
rfoot -13.0901 -31.4295
rtoes -11.6788
lfemur -39.6484 -18.1044 11.9938
ltibia 64.5719
lfoot 4.83313 13.4288
ltoes -9.38147
674
root 15.443 15.8543 1.05026 18.6588 -106.211 -28.1577
lowerback 15.4859 2.8521 1.3363
upperback 6.67143 3.21356 -5.88363
thorax -1.13603 1.49064 -7.51735
lowerneck -18.7829 12.0185 -2.03004
upperneck 7.47634 -50.1363 -4.69823
head 214.626 -135.647 -2.84642
rclavicle 3.97569e-016 1.19271e-014
rhumerus -46.5648 22.0126 -85.0842
rradius 58.4149
rwrist -25.4384
rhand -9.37391 -7.277
rfingers 7.12502
rthumb 16.5865 -36.5882
lclavicle 3.97569e-016 1.19271e-014
lhumerus -59.7263 20.4099 49.5602
lradius 35.8282
lwrist 1.60974
lhand -6.65335 15.0937
lfingers 7.12502
lthumb 19.2042 44.1655
rfemur 16.3992 19.3344 24.1716
rtibia -2.38542e-015
rfoot -13.1627 -31.2809
rtoes -11.0597
lfemur -37.76 -17.2305 12.2627
ltibia 66.9198
lfoot 5.55189 12.7703
ltoes -13.8568
675
root 15.4401 15.8666 1.04876 18.1052 -107.075 -27.5015
lowerback 15.2732 2.89306 1.11425
upperback 6.62146 3.23619 -5.93025
thorax -1.085 1.49737 -7.43103
lowerneck -18.8046 12.2535 -1.80974
upperneck 7.39755 -49.7291 -4.68405
head 214.57 -135.322 -2.79569
rclavicle -5.57591e-014 8.26944e-014
rhumerus -46.7118 21.229 -84.7049
rradius 57.8555
rwrist -25.0907
rhand -9.04269 -7.26877
rfingers 7.12502
rthumb 16.9053 -36.553
lclavicle -5.57591e-014 8.26944e-014
lhumerus -59.8341 20.343 48.7761
lradius 37.2271
lwrist 2.4081
lhand -8.47337 15.9578
lfingers 7.12502
lthumb 17.4533 45.1943
rfemur 16.2541 20.0191 24.0252
rtibia 2.06736e-014
rfoot -13.3441 -31.0745
rtoes -10.229
lfemur -36.0262 -16.3654 12.3933
ltibia 69.576
lfoot 6.34419 13.2105
ltoes -11.3029
676
root 15.4373 15.8724 1.05121 17.8171 -107.699 -27.0555
lowerback 14.9505 2.80331 0.902792
upperback 6.67029 3.09704 -5.90499
thorax -0.896586 1.42632 -7.2387
lowerneck -19.0355 12.5659 -1.77696
upperneck 7.17884 -49.1344 -4.57803
head 214.543 -135.202 -2.87022
rclavicle 9.24349e-015 -1.11319e-014
rhumerus -46.5611 20.5385 -84.1579
rradius 57.3231
rwrist -24.7278
rhand -8.92899 -7.09665
rfingers 7.12502
rthumb 17.0148 -36.3715
lclavicle 9.24349e-015 -1.11319e-014
lhumerus -59.8544 20.5325 47.9026
lradius 38.5522
lwrist 2.75456
lhand -9.57695 15.8547
lfingers 7.12502
lthumb 16.391 45.1821
rfemur 16.0366 20.4702 23.8521
rtibia -3.18055e-015
rfoot -13.2046 -30.8773
rtoes -10.2153
lfemur -34.4484 -15.7831 12.5191
ltibia 72.3421
lfoot 7.53473 13.4503
ltoes -5.71142
677
root 15.4333 15.8886 1.05016 18.25 -108.227 -27.208
lowerback 14.5247 2.69156 0.712895
upperback 6.44689 2.94336 -5.97153
thorax -0.935612 1.34851 -7.15985
lowerneck -18.7468 12.8743 -1.6345
upperneck 7.40483 -49.2645 -4.74936
head 214.874 -134.603 -3.14047
rclavicle 7.25564e-015 -2.22639e-014
rhumerus -47.0726 19.5853 -83.7889
rradius 57.0188
rwrist -24.2122
rhand -8.76109 -6.76013
rfingers 7.12502
rthumb 17.1764 -36.021
lclavicle 7.25564e-015 -2.22639e-014
lhumerus -59.9066 20.16 46.9131
lradius 39.6221
lwrist 3.01619
lhand -10.3165 15.2142
lfingers 7.12502
lthumb 15.6788 44.5989
rfemur 15.6726 20.7894 23.4521
rtibia -3.57812e-014
rfoot -12.9608 -30.6785
rtoes -10.4493
lfemur -33.0204 -15.073 12.186
ltibia 75.3694
lfoot 9.11248 12.842
ltoes -7.91539
678
root 15.4277 15.8997 1.05083 19.0009 -108.78 -27.6203
lowerback 14.0411 2.5974 0.440363
upperback 6.23239 2.80419 -6.04486
thorax -0.934731 1.27717 -7.04032
lowerneck -18.5596 13.1984 -1.57032
upperneck 7.43479 -49.0022 -4.76435
head 214.944 -134.525 -3.28955
rclavicle 4.60187e-014 -3.18055e-014
rhumerus -47.595 18.5739 -83.3519
rradius 56.8262
rwrist -23.8305
rhand -8.4821 -6.94577
rfingers 7.12502
rthumb 17.4449 -36.183
lclavicle 4.60187e-014 -3.18055e-014
lhumerus -59.6703 19.8159 45.9962
lradius 40.3974
lwrist 3.33714
lhand -10.8312 14.4356
lfingers 7.12502
lthumb 15.1831 43.8586
rfemur 15.2541 21.1083 22.9089
rtibia -1.27222e-014
rfoot -12.8949 -30.4164
rtoes -10.6665
lfemur -31.4515 -14.3938 11.6074
ltibia 78.3339
lfoot 9.6355 12.3784
ltoes -10.7675
